<?xml version="1.0" encoding="UTF-8" standalone="no"?>
<!DOCTYPE svg PUBLIC "-//W3C//DTD SVG 1.1//EN"
 "http://www.w3.org/Graphics/SVG/1.1/DTD/svg11.dtd">
<!-- Generated by graphviz version 2.38.0 (20140413.2041)
 -->
<!-- Title: %3 Pages: 1 -->
<svg width="154pt" height="188pt"
 viewBox="0.00 0.00 153.54 188.00" xmlns="http://www.w3.org/2000/svg" xmlns:xlink="http://www.w3.org/1999/xlink">
<g id="graph0" class="graph" transform="scale(1 1) rotate(0) translate(4 184)">
<title>%3</title>
<polygon fill="white" stroke="none" points="-4,4 -4,-184 149.54,-184 149.54,4 -4,4"/>
<!-- foo.bar/db -->
<g id="node1" class="node"><title>foo.bar/db</title>
<ellipse fill="none" stroke="black" cx="47.4458" cy="-90" rx="47.3916" ry="18"/>
<text text-anchor="middle" x="47.4458" y="-86.3" font-family="Times,serif" font-size="14.00">foo.bar/db</text>
</g>
<!-- foo.bar/config -->
<g id="node2" class="node"><title>foo.bar/config</title>
<ellipse fill="none" stroke="black" cx="84.4458" cy="-18" rx="61.1893" ry="18"/>
<text text-anchor="middle" x="84.4458" y="-14.3" font-family="Times,serif" font-size="14.00">foo.bar/config</text>
</g>
<!-- foo.bar/db&#45;&gt;foo.bar/config -->
<g id="edge1" class="edge"><title>foo.bar/db&#45;&gt;foo.bar/config</title>
<path fill="none" stroke="black" d="M56.4025,-72.055C60.6565,-64.0067 65.8377,-54.2046 70.5835,-45.2259"/>
<polygon fill="black" stroke="black" points="73.7358,-46.7519 75.3146,-36.2753 67.5471,-43.4807 73.7358,-46.7519"/>
</g>
<!-- foo.bar/server -->
<g id="node3" class="node"><title>foo.bar/server</title>
<ellipse fill="none" stroke="black" cx="84.4458" cy="-162" rx="59.5901" ry="18"/>
<text text-anchor="middle" x="84.4458" y="-158.3" font-family="Times,serif" font-size="14.00">foo.bar/server</text>
</g>
<!-- foo.bar/server&#45;&gt;foo.bar/db -->
<g id="edge2" class="edge"><title>foo.bar/server&#45;&gt;foo.bar/db</title>
<path fill="none" stroke="black" d="M75.4891,-144.055C71.1716,-135.887 65.8991,-125.912 61.0958,-116.824"/>
<polygon fill="black" stroke="black" points="64.0874,-114.994 56.32,-107.789 57.8988,-118.266 64.0874,-114.994"/>
</g>
<!-- foo.bar/server&#45;&gt;foo.bar/config -->
<g id="edge3" class="edge"><title>foo.bar/server&#45;&gt;foo.bar/config</title>
<path fill="none" stroke="black" d="M92.3387,-143.745C96.553,-133.577 101.303,-120.327 103.446,-108 106.186,-92.2364 106.186,-87.7636 103.446,-72 101.922,-63.2364 99.0813,-54.0062 96.0517,-45.7484"/>
<polygon fill="black" stroke="black" points="99.2407,-44.2931 92.3387,-36.2548 92.7216,-46.8428 99.2407,-44.2931"/>
</g>
</g>
</svg>
